<?xml version="1.0" encoding="UTF-8"?>
<svg id="Layer_2" data-name="Layer 2" xmlns="http://www.w3.org/2000/svg" viewBox="0 0 171.22 99.62">
  <defs>
    <style>
      .cls-1 {
        fill: #fff;
        stroke-width: 0px;
      }
    </style>
  </defs>
  <g id="Layer_2-2" data-name="Layer 2">
    <g>
      <path class="cls-1" d="m171.22,11.01c-.1,5.8-5,10.7-10.7,10.7s-10.9-5.1-10.8-11.1c.1-6,5.1-10.9,11.1-10.6,5.8.2,10.4,5.2,10.4,11h0Z"/>
      <path class="cls-1" d="m153.42,38.11c0,5.5-4.2,9.7-9.7,9.5-5.2-.1-9.3-4.3-9.3-9.5-.1-5.4,4.2-9.8,9.6-9.8,5.3-.1,9.5,4.3,9.4,9.8Z"/>
      <path class="cls-1" d="m128.92,20.51c-5.5-.3-9.3-4.6-9-10.2.2-5.4,4.9-9.6,10.1-9.2,5,.4,9.1,4.9,8.9,10.1-.1,5.3-4.7,9.6-10,9.3Z"/>
      <path class="cls-1" d="m129.02,73.71c-4.7.1-8.6-3.8-8.7-8.6,0-4.7,3.9-8.7,8.6-8.7s8.2,3.7,8.3,8.3c.2,5-3.5,8.9-8.2,9h0Z"/>
      <path class="cls-1" d="m106.72,10.81c0,4.4-3.9,8.4-8.3,8.5-4.3.1-8.4-3.8-8.5-8.2-.2-4.4,4.1-8.8,8.5-8.7s8.2,4,8.3,8.4Z"/>
      <path class="cls-1" d="m113.02,29.51c4.3.1,8.2,4.1,8.2,8.6s-4.2,8.7-8.7,8.5c-4.4-.2-8.1-4.3-7.9-8.7.1-4.6,4.2-8.5,8.4-8.4Z"/>
      <path class="cls-1" d="m97.72,57.61c4-.1,7.4,3.3,7.4,7.5,0,3.9-3.1,7.3-6.9,7.5-3.9.2-7.5-3.2-7.6-7.3-.3-4.1,3-7.6,7.1-7.7Z"/>
      <path class="cls-1" d="m67.12,18.21c-3.8,0-7.1-3.5-7.2-7.3,0-4.1,3.5-7.5,7.5-7.3,3.9.2,7.1,3.6,6.9,7.5,0,3.8-3.4,7.1-7.2,7.1Z"/>
      <path class="cls-1" d="m120.82,92.31c0,3.7-3.5,7.3-7.2,7.3-3.7.1-7.2-3.3-7.3-7.1-.1-3.9,3.6-7.7,7.4-7.6,3.5.1,7.1,3.7,7.1,7.4Z"/>
      <path class="cls-1" d="m89.02,38.11c-.1,3.9-3.4,7.3-7.2,7.3s-7.5-4-7.3-7.7c.2-3.8,3.7-7.1,7.5-7s7.1,3.5,7,7.4h0Z"/>
      <path class="cls-1" d="m36.02,4.61c3.4-.1,6.2,2.8,6.2,6.4,0,3.2-2.8,6.1-5.9,6.2-3.3.1-6.3-3-6.2-6.4,0-3.3,2.7-6.1,5.9-6.2h0Z"/>
      <path class="cls-1" d="m56.92,37.81c.1,3.4-2.9,6.4-6.2,6.4-3.2-.1-5.9-2.8-6-6.1,0-3.5,2.8-6.4,6.2-6.3,3.1.1,5.9,2.8,6,6Z"/>
      <path class="cls-1" d="m66.62,71.31c-3.4-.1-6.1-3.1-5.9-6.5.2-3.3,2.9-5.9,6.2-5.8,3.4.1,6.1,3,5.9,6.5-.2,3.3-3,5.9-6.2,5.8Z"/>
      <path class="cls-1" d="m21.42,43.01c-2.5,1-5.4-.6-6.3-2.8-.4-1-.3-1.8-.2-2.2.3-1.9,2.8-4.5,4.7-4.9.9-.2,1.8-.1,2.5.2,1.8.8,2.5,3,2.5,4.7-.1,1.8-1.1,4.1-3.2,5Z"/>
      <path class="cls-1" d="m5.32,15.71c-.2.1-1.6.4-3-.4C.92,14.51.12,12.91,0,10.91c-.1-2,.7-3.6,2-4.4.2-.2,1.5-.9,3-.6,2.2.4,3.9,2.9,3.7,5.4-.1,1.9-1.4,3.8-3.4,4.4h.01Z"/>
      <path class="cls-1" d="m35.42,70.01c-.5.1-1.5.2-2.6-.4-1.5-.8-2.3-2.6-2.2-4.7.1-2.8,2-5.2,4.8-4.6.1,0,.8.2,1.6.6,1.2.8,2.5,2.5,2.4,4.6-.2,2.3-2,4.1-4,4.5h0Z"/>
      <path class="cls-1" d="m46.82,91.81c.3-2.8,2.9-4.3,4.9-4.4.4,0,1.8-.1,3,.9s1.7,2.7,1.5,4.6c-.3,2.1-1.5,3.8-3.2,4.3-1,.3-1.8.1-2.1,0-1.8-.5-4.3-2.5-4.1-5.4h0Z"/>
    </g>
  </g>
</svg>