<?xml version="1.0" encoding="UTF-8"?>
<svg id="Layer_2" data-name="Layer 2" xmlns="http://www.w3.org/2000/svg" viewBox="0 0 823.12 99.62">
  <defs>
    <style>
      .cls-1 {
        fill: #fff;
        stroke-width: 0px;
      }
    </style>
  </defs>
  <g id="Layer_2-2" data-name="Layer 2">
    <g id="Layer_1-2" data-name="Layer 1-2">
      <g>
        <g>
          <path class="cls-1" d="m293.51,61.21c4.9-16,9.5-30.9,14.1-45.8,1.8-5.9,10.2-9.4,15.3-5.8,1.4,1,1.9,4.8,1.3,6.9-4,13.9-8.4,27.7-12.7,41.5-2.9,9.2-5.9,18.4-8.5,27.6-1.3,4.8-4.5,5.6-8.7,5.5-4.4-.1-8.5.2-10.2-5.5-4.1-13.9-8.8-27.6-13.2-41.3-.5-1.7-1.2-3.3-2.2-6.2-4.8,15-9.2,28.7-13.7,42.3-.2.6-.4,1.3-.6,1.9-2.8,8.7-6.2,10.7-15.1,8.6-4.4-1-4.2-4.1-3.1-7.4,3.5-10.6,7.1-21.1,10.6-31.7,4.1-12.3,8.3-24.6,12.1-37,1.4-4.6,3.9-6.7,8.6-6,1.1.2,2.3.1,3.5,0,4-.4,6,1.4,7.1,5.2,4.4,14.3,9.1,28.5,13.7,42.8.5,1,.9,2.1,1.7,4.4h0Z"/>
          <path class="cls-1" d="m738.11,74.01c-6-14.4-11.7-28-17.7-42.4-4.7,11.2-9.1,21.7-13.5,32.1-2,4.8-12,7.6-16,4.1-1.1-.9-1.8-3.8-1.2-5.1,7-17.1,14.3-34,21.7-51,.6-1.4,2.6-2.7,4.1-2.9,11-1.7,12.4-.8,16.8,9.5,8.9,21,17.9,41.9,26.8,62.9,2.9,6.9,1.7,8.8-5.6,8.8h-66.5c-7.1,0-8.2-1.9-5.4-8.6,2.1-5,5.8-7.5,11.3-7.5,14.7.1,29.5.1,45.2.1h0Z"/>
          <path class="cls-1" d="m583.31,12.11c2,.9,8,3.5,13.1,8.9,9.9,10.6,9.6,24.5,9.7,27.2.6,19.4-10.7,36.1-27.6,40.3-4.6,1.2-9.5,1.4-14.3,1.5-8.2.2-16.3,0-24.5.1-4.1,0-6.3-1.5-6-5.9.1-1.5.1-3,0-4.5-.2-4.1,1.9-5.7,5.8-5.7,9.8.1,19.7-.1,29.5,0,7.6.1,13-3.6,16.8-9.7,7.8-12.4,4.5-30.6-7-36.7-3.8-2-8.5-2.6-12.9-2.8-8.5-.4-17,0-25.5-.1-6.1-.1-6.8-1.1-6.7-9.3,0-2.9.2-4.4,1.2-5.5,1.8-2.1,5.2-1.8,5.8-1.7,9.2.2,18.5.4,27.7.7,3.4.1,8.8.6,14.9,3.2h0Z"/>
          <path class="cls-1" d="m417.61,62.21v-24.8c0-7.7.1-15.3,0-23-.1-4,1.6-5.9,5.7-5.7.8.1,1.7,0,2.5,0,7.4,0,8,.6,8,7.9v66c0,6.1-1.2,6.9-7.3,7.4-5.9.5-9.7-1.4-13.2-6.4-15.8-22.3-32-44.2-48-66.4-1.3-1.8-1.4-4.4-2-6.6,2.1-.6,4.2-1.4,6.4-1.8,6.4-1.3,10.2,1.6,13.9,6.9,9.4,13.6,19.4,26.7,29.2,39.9,1.2,1.8,2.5,3.6,4.8,6.6h0Z"/>
          <path class="cls-1" d="m503.01,61.61V15.01c0-4.3,1.5-6.7,6.1-6.3,1.7.1,3.3.1,5,0,3.6-.1,5.1,1.8,5.1,5.2v70.4c0,3.8-1.9,5.3-5.4,5.6-6.5.6-11.3-.9-15.5-6.9-15.4-22.1-31.6-43.7-47.3-65.5-1.3-1.8-1.6-4.4-2.4-6.6,2.2-.7,4.4-1.7,6.7-2.1,6.1-1.3,10,1.5,13.5,6.5,9.8,14,20.2,27.7,30.3,41.5,1,1.3,2,2.4,3.9,4.8h0Z"/>
          <path class="cls-1" d="m783.01,49.01v33.9c0,6.2-1,7-8,7s-8.2-.9-8.2-6.8V15.21c0-5.8.9-6.6,6.7-6.6,1,0,2,.1,3,0,4.7-.4,6.6,1.6,6.5,6.4-.1,11.4,0,22.7,0,34h0Z"/>
          <path class="cls-1" d="m646.91,74.01c8.3,0,16.6.1,25-.1,4.8-.1,6.8,1.9,6.3,6.6-.1,1.5-.1,3,0,4.5.1,3.3-1.6,5-4.8,5-17.3.1-34.6,0-51.9,0-3.5,0-5.2-1.8-5.2-5.3v-5.5c.1-3.7,2-5.3,5.7-5.3,8.3.2,16.6.1,24.9.1h0Z"/>
          <path class="cls-1" d="m647.11,24.71c-8,0-16,.1-24,0-6.1-.1-7-1.3-6.9-8.7.1-6.2.9-7.2,6.7-7.2h48.5c5.9,0,6.7.8,6.8,6.6.1,9-.3,9.4-9.1,9.4-7.3-.1-14.6-.1-22-.1h0Z"/>
          <path class="cls-1" d="m644.91,57.31c-7.5,0-15,.1-22.5,0-5.4-.1-6.2-1.1-6.2-7.7,0-7,.9-8.4,6.1-8.5,15-.1,30,0,45-.1,4.2,0,6,1.8,6.2,5.9.5,9.5-.2,10.4-9.6,10.4-6.3,0-12.7,0-19,0h0Z"/>
          <path class="cls-1" d="m348.11,65.51c0,6.2-.1,12.3,0,18.5.1,4.2-1.6,6.2-5.9,6.1-1.8-.1-3.7.1-5.5,0-3.1-.2-4.9-1.8-4.8-5.1v-38.5c0-3.7,2-5.5,5.7-5.4h5c3.8-.1,5.5,1.7,5.5,5.4-.1,6.3,0,12.7,0,19Z"/>
          <path class="cls-1" d="m806.41,73.91c3.8,0,7.6.1,11.5,0,3.6-.1,5.1,1.8,5.2,5.2,0,1.8-.1,3.7,0,5.5.2,3.6-1.8,5.3-5.1,5.3-7.8.1-15.6.1-23.4,0-3-.1-5-1.6-4.9-5,.1-2,0-4,0-6,0-3.5,1.8-5.1,5.3-5,3.8.1,7.6,0,11.4,0h0Z"/>
          <path class="cls-1" d="m226.21,37.01c-5.1,1.3-7.6-1.7-8.9-7.1-1.1-4.8-3-9.5-4.3-14.2-1-3.5-.6-4.6,0-5.3,1.2-1.6,3.8-1.6,9-1.6,3.3,0,4.1.3,4.7.7,1.6,1,2.4,2.4,3.1,5.3,1.1,4.5,2.6,8.9,4,13.3,2.4,7.7,1.5,8.9-7.6,8.9h0Z"/>
          <path class="cls-1" d="m362.71,75.91v-4.5c0-9.5,3.2-12,12.5-9.4,1.5.4,3.3,2.9,3.4,4.6.4,6.1.5,12.3,0,18.4-.2,1.7-2.7,3.8-4.6,4.7-1.8.8-4.2.3-6.4.2-3.4-.2-5.1-1.9-5-5.5.2-2.8.1-5.7.1-8.5h0Z"/>
          <path class="cls-1" d="m464.21,75.81v5c0,8.6-4.6,11.9-12.7,8.7-1.5-.6-3.2-3.1-3.4-4.8-.4-6-.2-12-.1-17.9,0-3.4,1.9-5.2,5.4-5,1.5.1,3,.1,4.5,0,4.5-.4,6.5,1.6,6.3,6.1-.1,2.5,0,5.2,0,7.9h0Z"/>
          <path class="cls-1" d="m348.11,22.51c0,2.8.1,5.7,0,8.5-.1,5-1.3,5.9-7.5,5.9-6.9,0-8.5-1-8.6-6-.1-5.6,0-11.3,0-17,0-3.4,1.6-5.1,5.1-5.3,10.5-.6,11-.2,11,10.3v3.6h0Z"/>
        </g>
        <g>
          <path class="cls-1" d="m171.21,11.01c-.1,5.8-5,10.7-10.7,10.7s-10.9-5.1-10.8-11.1c.1-6,5.1-10.9,11.1-10.6,5.8.2,10.4,5.2,10.4,11h0Z"/>
          <path class="cls-1" d="m153.41,38.11c0,5.5-4.2,9.7-9.7,9.5-5.2-.1-9.3-4.3-9.3-9.5-.1-5.4,4.2-9.8,9.6-9.8,5.3-.1,9.5,4.3,9.4,9.8Z"/>
          <path class="cls-1" d="m128.91,20.51c-5.5-.3-9.3-4.6-9-10.2.2-5.4,4.9-9.6,10.1-9.2,5,.4,9.1,4.9,8.9,10.1-.1,5.3-4.7,9.6-10,9.3Z"/>
          <path class="cls-1" d="m129.01,73.71c-4.7.1-8.6-3.8-8.7-8.6,0-4.7,3.9-8.7,8.6-8.7s8.2,3.7,8.3,8.3c.2,5-3.5,8.9-8.2,9Z"/>
          <path class="cls-1" d="m106.71,10.81c0,4.4-3.9,8.4-8.3,8.5-4.3.1-8.4-3.8-8.5-8.2-.2-4.4,4.1-8.8,8.5-8.7s8.2,4,8.3,8.4Z"/>
          <path class="cls-1" d="m113.01,29.51c4.3.1,8.2,4.1,8.2,8.6s-4.2,8.7-8.7,8.5c-4.4-.2-8.1-4.3-7.9-8.7.1-4.6,4.2-8.5,8.4-8.4Z"/>
          <path class="cls-1" d="m97.71,57.61c4-.1,7.4,3.3,7.4,7.5,0,3.9-3.1,7.3-6.9,7.5-3.9.2-7.5-3.2-7.6-7.3-.3-4.1,3-7.6,7.1-7.7Z"/>
          <path class="cls-1" d="m67.11,18.21c-3.8,0-7.1-3.5-7.2-7.3,0-4.1,3.5-7.5,7.5-7.3,3.9.2,7.1,3.6,6.9,7.5,0,3.8-3.4,7.1-7.2,7.1Z"/>
          <path class="cls-1" d="m120.81,92.31c0,3.7-3.5,7.3-7.2,7.3-3.7.1-7.2-3.3-7.3-7.1-.1-3.9,3.6-7.7,7.4-7.6,3.5.1,7.1,3.7,7.1,7.4Z"/>
          <path class="cls-1" d="m89.01,38.11c-.1,3.9-3.4,7.3-7.2,7.3s-7.5-4-7.3-7.7c.2-3.8,3.7-7.1,7.5-7,3.8.1,7.1,3.5,7,7.4h0Z"/>
          <path class="cls-1" d="m36.01,4.61c3.4-.1,6.2,2.8,6.2,6.4,0,3.2-2.8,6.1-5.9,6.2-3.3.1-6.3-3-6.2-6.4,0-3.3,2.7-6.1,5.9-6.2h0Z"/>
          <path class="cls-1" d="m56.91,37.81c.1,3.4-2.9,6.4-6.2,6.4-3.2-.1-5.9-2.8-6-6.1,0-3.5,2.8-6.4,6.2-6.3,3.1.1,5.9,2.8,6,6Z"/>
          <path class="cls-1" d="m66.61,71.31c-3.4-.1-6.1-3.1-5.9-6.5.2-3.3,2.9-5.9,6.2-5.8,3.4.1,6.1,3,5.9,6.5-.2,3.3-3,5.9-6.2,5.8Z"/>
          <path class="cls-1" d="m21.41,43.01c-2.5,1-5.4-.6-6.3-2.8-.4-1-.3-1.8-.2-2.2.3-1.9,2.8-4.5,4.7-4.9.9-.2,1.8-.1,2.5.2,1.8.8,2.5,3,2.5,4.7-.1,1.8-1.1,4.1-3.2,5Z"/>
          <path class="cls-1" d="m5.31,15.71c-.2.1-1.6.4-3-.4C.91,14.51.11,12.91,0,10.91c-.1-2,.7-3.6,2-4.4.2-.2,1.5-.9,3-.6,2.2.4,3.9,2.9,3.7,5.4-.1,1.9-1.4,3.8-3.4,4.4h0Z"/>
          <path class="cls-1" d="m35.41,70.01c-.5.1-1.5.2-2.6-.4-1.5-.8-2.3-2.6-2.2-4.7.1-2.8,2-5.2,4.8-4.6.1,0,.8.2,1.6.6,1.2.8,2.5,2.5,2.4,4.6-.2,2.3-2,4.1-4,4.5h0Z"/>
          <path class="cls-1" d="m46.81,91.81c.3-2.8,2.9-4.3,4.9-4.4.4,0,1.8-.1,3,.9s1.7,2.7,1.5,4.6c-.3,2.1-1.5,3.8-3.2,4.3-1,.3-1.8.1-2.1,0-1.8-.5-4.3-2.5-4.1-5.4h0Z"/>
        </g>
      </g>
    </g>
  </g>
</svg>